# xmcd CD database file
#
# Track frame offsets:
#	150
#	18683
#	41656
#	60877
#	76759
#	92917
#	113171
#	139201
#	155806
#	170391
#	187826
#	205116
#	222575
#	231473
#	256129
#	278348
#	295869
#
# Disc length: 4045 seconds
#
# Revision: 0
# Processed by: cddbd v1.5.1PL2 Copyright (c) Steve Scherf et al.
# Submitted via: CDex 1.51
#
DISCID=ed0fcb11
DTITLE=Sophia New Swing Orchestra - Plays in 1970-1972
DYEAR=1970
DGENRE=Jazz
TTITLE0=It's oh so nice
TTITLE1=Four Five Six
TTITLE2=Basie straight ahead
TTITLE3=It's about time
TTITLE4=Four Brothers
TTITLE5=Love for Sale
TTITLE6=Big Dipper
TTITLE7=(MC) It's fun time
TTITLE8=Lonely Street
TTITLE9=Queen Bee
TTITLE10=Switch in time
TTITLE11=UNknown
TTITLE12=Autumn Leaves
TTITLE13=Lil' Darlin
TTITLE14=Bugs Groove
TTITLE15=April in Paris
TTITLE16=UNkown
EXTD=YEAR: 1970
EXTT0=
EXTT1=
EXTT2=
EXTT3=
EXTT4=
EXTT5=
EXTT6=
EXTT7=
EXTT8=
EXTT9=
EXTT10=
EXTT11=
EXTT12=
EXTT13=
EXTT14=
EXTT15=
EXTT16=
PLAYORDER=
